<?xml version="1.0" encoding="utf-8"?>
<!-- Generator: Adobe Illustrator 24.0.1, SVG Export Plug-In . SVG Version: 6.00 Build 0)  -->
<svg version="1.1" id="Layer_1" xmlns="http://www.w3.org/2000/svg" xmlns:xlink="http://www.w3.org/1999/xlink" x="0px" y="0px"
	 viewBox="0 0 56.8 88.4" style="enable-background:new 0 0 56.8 88.4;" xml:space="preserve">
<style type="text/css">
	.st0{fill:#2A2A2A;}
</style>
<g>
	<g>
		<path class="st0" d="M18.6,16.1c0.2-1.2,0.8-2.1,1.9-2.7c0.6,9.7,0.2,19.5,1.4,29.2c4.3,0.8,9.4,0,12.9,3.3
			c-4.3,2-9.1,2.9-13.5,4.9c-1.3,6.7-2.4,13.5-2.8,20.4c-0.5,0-1.4-0.1-1.9-0.1c-2.1-7.1-2.2-14.5-3.3-21.7
			C8.9,47.9,4.1,47.6,0,45.5c-1.6-1,0.2-2.7,1.4-2.6c4.2-0.5,8.5-0.2,12.7-0.9C15.6,33.4,16.9,24.7,18.6,16.1z M15.3,43.7
			c-3.2,0.5-6.4,0.6-9.6,0.6c0,0.3,0,0.9,0,1.2c3.1,0.8,8.5,0.1,9.2,4.1c1.1,4.2,1,8.5,2.1,12.7c1.5-4,1.2-8.4,2.5-12.4
			c2.8-2.2,6.5-2.8,9.7-4.2c-2.9-0.5-5.9-0.7-8.6-1.7c-2.3-5.5-0.7-11.6-1.6-17.3C16.9,32.1,17.3,38.2,15.3,43.7z"/>
	</g>
	<g>
		<path class="st0" d="M47,30.6c-0.1-2.5-0.7-6.3,2.6-7.1c4-1.2,4.6,4.9,2.5,7C50.7,32.1,48.6,30.8,47,30.6z M48.9,26.5
			c-0.7,0.9-0.2,4.2,1.5,2.6c1.9-0.7,0.5-3.2,0.2-4.6C50.2,25.1,49.3,26.1,48.9,26.5z"/>
	</g>
	<path class="st0" d="M53.3,49.4c0.9,0,2.7,0,3.6,0c0,1.3-0.3,4.2-2.2,3.5C52.9,52.9,53.7,50.5,53.3,49.4z"/>
	<g>
		<path class="st0" d="M38.2,70.8c2.4-4.1,1.5-9.7,4.3-13.7l0.9,0.8c0.7,4.3,0.9,8.6,1.4,12.8c3.3,0.4,6.6,0.9,9.5,2.6
			c-2.9,1.6-6.1,2.5-9.3,3.3c-1.2,4.2-1.9,8.6-3.7,12.7c-2.8-3.8-1.3-8.8-3.1-13c-2.6-1.1-5.4-1.6-7.9-3.1
			C32.5,71.2,35.5,71.2,38.2,70.8z M37.7,73.4c3.5,1.2,2.8,5.4,3.5,8.2c1.1-2.1,1.5-4.5,2.3-6.7c1.3-0.7,2.8-0.9,4.1-1.4
			c-1.6-0.7-3.4-1-4.7-2.1c-0.5-1.6-0.7-3.3-1-5C40.9,69.1,40.5,72.2,37.7,73.4z"/>
	</g>
	<g>
		<path class="st0" d="M13.7,82.9c1.5-0.1,3.3-0.1,4.4,1c-0.1,1.5-0.2,3-0.4,4.5c-1.7-0.1-3.4-0.2-5.2-0.4
			C12.6,86.2,11.7,83.9,13.7,82.9z M14.8,84.1c-1.9,0.4-0.9,3.4,0.9,3C17.6,86.6,16.7,83.4,14.8,84.1z"/>
	</g>
</g>
</svg>
